#!OML:ASF H:\Dans Jumps\Project 1\Capture day 1\Session 1\subject.ASF
:FULLY-SPECIFIED
:DEGREES
576
root 0.13958 17.7737 -6.4097 7.1552 -0.380337 -1.22565
lowerback -1.26698 0.216043 -0.112522
upperback 4.12458 0.231565 1.41679
thorax 4.96142 0.0790625 1.54099
lowerneck -10.9704 0.426354 -1.69496
upperneck 37.9978 0.718759 1.04757
head 15.0504 0.209755 0.857364
rclavicle -2.6339e-015 -2.98177e-015
rhumerus -16.7362 -12.645 -82.9028
rradius 26.704
rwrist 34.0367
rhand -18.2377 -24.9957
rfingers 7.12502
rthumb 8.04096 -54.8227
lclavicle -2.6339e-015 -2.98177e-015
lhumerus -12.1861 -2.86578 87.6197
lradius 19.7026
lwrist 2.44869
lhand -25.2984 -3.03779
lfingers 7.12502
lthumb 1.22334 26.9384
rfemur -16.1493 -2.38392 20.2923
rtibia 21.4717
rfoot -11.9029 -2.67748
rtoes 15.6655
lfemur -14.1373 6.4375 -19.0693
ltibia 17.7108
lfoot -8.69177 7.49343
ltoes 8.32683
577
root 0.13921 17.7737 -6.41198 7.14014 -0.392072 -1.22046
lowerback -1.27681 0.206738 -0.123101
upperback 4.11201 0.219801 1.4123
thorax 4.95418 0.0729782 1.54159
lowerneck -10.9522 0.425413 -1.70178
upperneck 37.9937 0.723042 1.03508
head 15.0441 0.208743 0.853765
rclavicle -8.44835e-016 -4.96962e-015
rhumerus -16.3261 -11.5817 -83.4889
rradius 27.0568
rwrist 33.5215
rhand -18.3046 -24.9116
rfingers 7.12502
rthumb 7.97633 -54.7411
lclavicle -8.44835e-016 -4.96962e-015
lhumerus -11.8913 -4.41351 88.2313
lradius 20.2903
lwrist 3.38113
lhand -25.2815 -3.04926
lfingers 7.12502
lthumb 1.23968 26.9269
rfemur -16.1466 -2.39281 20.2887
rtibia 21.4796
rfoot -11.8996 -2.66069
rtoes 15.6592
lfemur -14.1234 6.44075 -19.0732
ltibia 17.7032
lfoot -8.67606 7.49925
ltoes 8.32257
578
root 0.138831 17.7736 -6.41418 7.12605 -0.403914 -1.21335
lowerback -1.28636 0.197921 -0.134248
upperback 4.09846 0.208795 1.40621
thorax 4.94572 0.0672945 1.54088
lowerneck -10.9344 0.423878 -1.7054
upperneck 37.9928 0.726435 1.02034
head 15.0395 0.207486 0.84855
rclavicle 2.48481e-016 -8.74653e-015
rhumerus -15.9412 -10.5134 -84.0517
rradius 27.4156
rwrist 33.0247
rhand -18.3453 -24.8493
rfingers 7.12502
rthumb 7.93709 -54.6803
lclavicle 2.48481e-016 -8.74653e-015
lhumerus -11.6112 -5.96987 88.8122
lradius 20.8796
lwrist 4.26715
lhand -25.3023 -3.13805
lfingers 7.12502
lthumb 1.21957 26.8382
rfemur -16.145 -2.40347 20.2832
rtibia 21.488
rfoot -11.8971 -2.64392
rtoes 15.6497
lfemur -14.1099 6.44705 -19.0794
ltibia 17.6962
lfoot -8.66448 7.50204
ltoes 8.32012
579
root 0.138385 17.7735 -6.41631 7.11247 -0.418626 -1.20859
lowerback -1.29645 0.190681 -0.142303
upperback 4.08483 0.199816 1.39912
thorax 4.93744 0.0627619 1.53752
lowerneck -10.9243 0.42309 -1.70198
upperneck 38.0009 0.730584 1.00201
head 15.0413 0.206996 0.840847
rclavicle -4.27387e-015 -6.95746e-015
rhumerus -15.5759 -9.46017 -84.5915
rradius 27.7694
rwrist 32.5607
rhand -18.3738 -24.7899
rfingers 7.12502
rthumb 7.90961 -54.6219
lclavicle -4.27387e-015 -6.95746e-015
lhumerus -11.3438 -7.52901 89.3608
lradius 21.4653
lwrist 5.09063
lhand -25.3874 -3.40439
lfingers 7.12502
lthumb 1.13738 26.5723
rfemur -16.1442 -2.40853 20.2803
rtibia 21.4963
rfoot -11.8936 -2.63009
rtoes 15.6409
lfemur -14.0979 6.45504 -19.0825
ltibia 17.6919
lfoot -8.65528 7.50581
ltoes 8.32451
580
root 0.137874 17.7734 -6.41843 7.10038 -0.433536 -1.20417
lowerback -1.30453 0.183432 -0.15004
upperback 4.06833 0.190881 1.39145
thorax 4.92501 0.0583085 1.53335
lowerneck -10.9218 0.423561 -1.68795
upperneck 38.0215 0.737288 0.97475
head 15.051 0.207796 0.828076
rclavicle 3.52843e-015 1.53064e-014
rhumerus -15.2361 -8.41493 -85.1087
rradius 28.1259
rwrist 32.12
rhand -18.3941 -24.7323
rfingers 7.12502
rthumb 7.88999 -54.5651
lclavicle 3.52843e-015 1.53064e-014
lhumerus -11.0947 -9.07667 89.8786
lradius 22.0437
lwrist 5.83007
lhand -25.5444 -3.79872
lfingers 7.12502
lthumb 0.985742 26.1787
rfemur -16.1451 -2.41303 20.2781
rtibia 21.505
rfoot -11.8903 -2.61712
rtoes 15.6353
lfemur -14.0886 6.46445 -19.0851
ltibia 17.6901
lfoot -8.64894 7.50821
ltoes 8.33163
581
root 0.137309 17.7732 -6.42051 7.08841 -0.449042 -1.20298
lowerback -1.31143 0.175512 -0.155229
upperback 4.05192 0.18093 1.38437
thorax 4.91204 0.0534391 1.52829
lowerneck -10.932 0.426456 -1.66796
upperneck 38.0522 0.748062 0.942776
head 15.0686 0.210432 0.813072
rclavicle 1.09332e-015 4.96962e-015
rhumerus -14.9136 -7.37756 -85.6061
rradius 28.4824
rwrist 31.694
rhand -18.4191 -24.6732
rfingers 7.12502
rthumb 7.86585 -54.5069
lclavicle 1.09332e-015 4.96962e-015
lhumerus -10.8588 -10.6246 90.365
lradius 22.6219
lwrist 6.51782
lhand -25.7419 -4.26779
lfingers 7.12502
lthumb 0.795055 25.7105
rfemur -16.1458 -2.4127 20.2793
rtibia 21.5132
rfoot -11.8871 -2.60673
rtoes 15.6382
lfemur -14.0815 6.47373 -19.0838
ltibia 17.6915
lfoot -8.64429 7.51177
ltoes 8.34219
582
root 0.136717 17.773 -6.42253 7.07641 -0.461927 -1.20226
lowerback -1.31672 0.165811 -0.16053
upperback 4.03541 0.16859 1.37781
thorax 4.89812 0.0473725 1.52371
lowerneck -10.9539 0.431623 -1.6447
upperneck 38.0924 0.763085 0.906964
head 15.0937 0.21472 0.796692
rclavicle -1.44119e-015 -7.95139e-016
rhumerus -14.6108 -6.35156 -86.0824
rradius 28.844
rwrist 31.2771
rhand -18.459 -24.6049
rfingers 7.12502
rthumb 7.82735 -54.44
lclavicle -1.44119e-015 -7.95139e-016
lhumerus -10.6389 -12.1502 90.8202
lradius 23.2073
lwrist 7.14447
lhand -25.9192 -4.70916
lfingers 7.12502
lthumb 0.62381 25.2697
rfemur -16.1461 -2.41479 20.2812
rtibia 21.5214
rfoot -11.8842 -2.59512
rtoes 15.6464
lfemur -14.0755 6.48082 -19.0817
ltibia 17.6946
lfoot -8.64059 7.51559
ltoes 8.3531
583
root 0.136108 17.7728 -6.42443 7.06352 -0.470924 -1.20455
lowerback -1.32113 0.153557 -0.163373
upperback 4.02091 0.152668 1.37262
thorax 4.88591 0.0395763 1.51897
lowerneck -10.9789 0.438354 -1.62482
upperneck 38.1289 0.780238 0.874238
head 15.1177 0.219838 0.782504
rclavicle -1.78906e-015 -1.33186e-014
rhumerus -14.3213 -5.34415 -86.5387
rradius 29.2038
rwrist 30.8642
rhand -18.5207 -24.5158
rfingers 7.12502
rthumb 7.76778 -54.3531
lclavicle -1.78906e-015 -1.33186e-014
lhumerus -10.4328 -13.6493 91.244
lradius 23.8021
lwrist 7.7193
lhand -26.0369 -5.02415
lfingers 7.12502
lthumb 0.510098 24.955
rfemur -16.1442 -2.418 20.2865
rtibia 21.5287
rfoot -11.881 -2.58419
rtoes 15.6537
lfemur -14.0695 6.48562 -19.0761
ltibia 17.6995
lfoot -8.63724 7.51854
ltoes 8.35788
584
root 0.135452 17.7726 -6.42625 7.0499 -0.476657 -1.20503
lowerback -1.32456 0.138743 -0.16951
upperback 4.0086 0.133397 1.36833
thorax 4.87551 0.0299509 1.51683
lowerneck -11.0084 0.446894 -1.61273
upperneck 38.1632 0.800297 0.846894
head 15.1416 0.225781 0.772421
rclavicle -4.96962e-017 -4.57205e-015
rhumerus -14.0423 -4.35951 -86.9749
rradius 29.5606
rwrist 30.4617
rhand -18.5885 -24.4316
rfingers 7.12502
rthumb 7.70233 -54.2714
lclavicle -4.96962e-017 -4.57205e-015
lhumerus -10.2389 -15.1177 91.6372
lradius 24.4108
lwrist 8.25876
lhand -26.0737 -5.18936
lfingers 7.12502
lthumb 0.474609 24.7899
rfemur -16.1405 -2.42158 20.2897
rtibia 21.5356
rfoot -11.8779 -2.57544
rtoes 15.651
lfemur -14.0632 6.48868 -19.0721
ltibia 17.7056
lfoot -8.63472 7.52056
ltoes 8.35793
585
root 0.13474 17.7724 -6.42792 7.036 -0.479023 -1.20732
lowerback -1.32952 0.122042 -0.173952
upperback 3.99971 0.111444 1.3652
thorax 4.86964 0.0189984 1.51484
lowerneck -11.032 0.455794 -1.60911
upperneck 38.185 0.820901 0.825229
head 15.1578 0.231595 0.766152
rclavicle 1.04362e-015 3.18055e-015
rhumerus -13.776 -3.40206 -87.3905
rradius 29.917
rwrist 30.0675
rhand -18.6711 -24.3351
rfingers 7.12502
rthumb 7.62265 -54.1777
lclavicle 1.04362e-015 3.18055e-015
lhumerus -10.0534 -16.5666 91.9992
lradius 25.0321
lwrist 8.78528
lhand -26.0344 -5.2235
lfingers 7.12502
lthumb 0.512556 24.7556
rfemur -16.1355 -2.42598 20.2953
rtibia 21.5425
rfoot -11.8751 -2.56939
rtoes 15.6318
lfemur -14.0573 6.49088 -19.0658
ltibia 17.7132
lfoot -8.6324 7.52067
ltoes 8.35365
586
root 0.133817 17.7722 -6.42987 7.02475 -0.469989 -1.20844
lowerback -1.33281 0.101534 -0.179624
upperback 3.9905 0.0844432 1.36262
thorax 4.86262 0.00548755 1.51382
lowerneck -11.048 0.464225 -1.61095
upperneck 38.1967 0.840244 0.808485
head 15.1672 0.236836 0.762581
rclavicle 1.2424e-015 3.37934e-015
rhumerus -13.5252 -2.47445 -87.7859
rradius 30.2699
rwrist 29.6923
rhand -18.7351 -24.2692
rfingers 7.12502
rthumb 7.5608 -54.1141
lclavicle 1.2424e-015 3.37934e-015
lhumerus -9.88062 -17.9828 92.3329
lradius 25.6649
lwrist 9.29231
lhand -25.9753 -5.19196
lfingers 7.12502
lthumb 0.569575 24.787
rfemur -16.1335 -2.4311 20.3007
rtibia 21.5508
rfoot -11.872 -2.5735
rtoes 15.6142
lfemur -14.0575 6.4882 -19.0598
ltibia 17.7224
lfoot -8.63023 7.51383
ltoes 8.35296
